<svg xmlns="http://www.w3.org/2000/svg" xmlns:xlink="http://www.w3.org/1999/xlink" width="300" zoomAndPan="magnify" viewBox="0 0 224.87999 37.5" height="50" preserveAspectRatio="xMidYMid meet" version="1.0"><defs><g/><clipPath id="807a4de309"><path d="M 1.421875 0 L 223.339844 0 L 223.339844 37.007812 L 1.421875 37.007812 Z M 1.421875 0 " clip-rule="nonzero"/></clipPath><clipPath id="2317684536"><path d="M 5.121094 5.945312 L 31.5 5.945312 L 31.5 33 L 5.121094 33 Z M 5.121094 5.945312 " clip-rule="nonzero"/></clipPath><clipPath id="f465c66304"><path d="M 9.5625 5.945312 L 27.058594 5.945312 C 29.511719 5.945312 31.5 7.933594 31.5 10.386719 L 31.5 28.558594 C 31.5 31.011719 29.511719 33 27.058594 33 L 9.5625 33 C 7.109375 33 5.121094 31.011719 5.121094 28.558594 L 5.121094 10.386719 C 5.121094 7.933594 7.109375 5.945312 9.5625 5.945312 Z M 9.5625 5.945312 " clip-rule="nonzero"/></clipPath><clipPath id="945251d8bf"><path d="M 12 8.269531 L 24 8.269531 L 24 26 L 12 26 Z M 12 8.269531 " clip-rule="nonzero"/></clipPath><clipPath id="b377067cbf"><path d="M 7.109375 22 L 29.3125 22 L 29.3125 30.472656 L 7.109375 30.472656 Z M 7.109375 22 " clip-rule="nonzero"/></clipPath><clipPath id="aa6daadce1"><path d="M 11.195312 7.527344 L 24.644531 7.527344 L 24.644531 26.707031 L 11.195312 26.707031 Z M 11.195312 7.527344 " clip-rule="nonzero"/></clipPath><clipPath id="35eeca1947"><path d="M 15.632812 7.527344 L 20.203125 7.527344 C 22.65625 7.527344 24.644531 9.515625 24.644531 11.96875 L 24.644531 22.261719 C 24.644531 24.714844 22.65625 26.703125 20.203125 26.703125 L 15.632812 26.703125 C 13.183594 26.703125 11.195312 24.714844 11.195312 22.261719 L 11.195312 11.96875 C 11.195312 9.515625 13.183594 7.527344 15.632812 7.527344 Z M 15.632812 7.527344 " clip-rule="nonzero"/></clipPath><clipPath id="6e34051967"><path d="M 12 7.527344 L 24 7.527344 L 24 25 L 12 25 Z M 12 7.527344 " clip-rule="nonzero"/></clipPath><clipPath id="4c76bc8f04"><path d="M 9.574219 21 L 24.375 21 L 24.375 26.773438 L 9.574219 26.773438 Z M 9.574219 21 " clip-rule="nonzero"/></clipPath></defs><g clip-path="url(#807a4de309)"><path fill="#ffffff" d="M 1.421875 0 L 223.460938 0 L 223.460938 37.007812 L 1.421875 37.007812 Z M 1.421875 0 " fill-opacity="1" fill-rule="nonzero"/><path fill="#3b4396" d="M 1.421875 0 L 223.460938 0 L 223.460938 37.007812 L 1.421875 37.007812 Z M 1.421875 0 " fill-opacity="1" fill-rule="nonzero"/></g><g fill="#f0ffff" fill-opacity="1"><g transform="translate(59.058004, 25.283266)"><g><path d="M 13.546875 -6.40625 C 13.546875 -5.050781 13.335938 -3.851562 12.921875 -2.8125 C 12.515625 -1.78125 11.925781 -0.988281 11.15625 -0.4375 C 10.394531 0.101562 9.488281 0.375 8.4375 0.375 C 7.039062 0.375 5.847656 -0.0625 4.859375 -0.9375 L 4.859375 4.765625 L 1.75 4.765625 L 1.75 -12.640625 L 4.609375 -12.640625 L 4.609375 -11.390625 C 5.191406 -11.890625 5.800781 -12.28125 6.4375 -12.5625 C 7.070312 -12.851562 7.804688 -13 8.640625 -13 C 10.234375 -13 11.445312 -12.4375 12.28125 -11.3125 C 13.125 -10.1875 13.546875 -8.550781 13.546875 -6.40625 Z M 10.34375 -6.359375 C 10.34375 -7.585938 10.128906 -8.546875 9.703125 -9.234375 C 9.273438 -9.921875 8.640625 -10.265625 7.796875 -10.265625 C 7.285156 -10.265625 6.765625 -10.144531 6.234375 -9.90625 C 5.703125 -9.664062 5.242188 -9.375 4.859375 -9.03125 L 4.859375 -3.5 C 5.179688 -3.207031 5.585938 -2.945312 6.078125 -2.71875 C 6.566406 -2.488281 7.066406 -2.375 7.578125 -2.375 C 8.429688 -2.375 9.101562 -2.734375 9.59375 -3.453125 C 10.09375 -4.179688 10.34375 -5.148438 10.34375 -6.359375 Z M 10.34375 -6.359375 "/></g></g></g><g fill="#f0ffff" fill-opacity="1"><g transform="translate(73.716202, 25.283266)"><g><path d="M 4.3125 -5.5 C 4.363281 -4.375 4.632812 -3.566406 5.125 -3.078125 C 5.613281 -2.585938 6.382812 -2.34375 7.4375 -2.34375 C 8.050781 -2.34375 8.585938 -2.421875 9.046875 -2.578125 C 9.515625 -2.734375 9.921875 -3.023438 10.265625 -3.453125 L 12.578125 -1.8125 C 12.066406 -1.070312 11.40625 -0.519531 10.59375 -0.15625 C 9.789062 0.195312 8.691406 0.375 7.296875 0.375 C 5.222656 0.375 3.671875 -0.171875 2.640625 -1.265625 C 1.617188 -2.359375 1.109375 -4.007812 1.109375 -6.21875 C 1.109375 -10.738281 3.132812 -13 7.1875 -13 C 8.976562 -13 10.34375 -12.488281 11.28125 -11.46875 C 12.226562 -10.457031 12.703125 -8.976562 12.703125 -7.03125 L 12.703125 -5.5 Z M 9.625 -7.65625 C 9.625 -9.570312 8.785156 -10.53125 7.109375 -10.53125 C 6.554688 -10.53125 6.101562 -10.4375 5.75 -10.25 C 5.394531 -10.0625 5.109375 -9.78125 4.890625 -9.40625 C 4.679688 -9.03125 4.515625 -8.445312 4.390625 -7.65625 Z M 9.625 -7.65625 "/></g></g></g><g fill="#f0ffff" fill-opacity="1"><g transform="translate(87.483104, 25.283266)"><g><path d="M 9.203125 0 L 9.203125 -1.3125 C 7.972656 -0.1875 6.65625 0.375 5.25 0.375 C 3.851562 0.375 2.796875 0.0078125 2.078125 -0.71875 C 1.367188 -1.457031 1.015625 -2.398438 1.015625 -3.546875 C 1.015625 -4.453125 1.195312 -5.195312 1.5625 -5.78125 C 1.925781 -6.363281 2.46875 -6.820312 3.1875 -7.15625 C 3.90625 -7.488281 4.9375 -7.722656 6.28125 -7.859375 L 8.953125 -8.125 L 8.953125 -8.6875 C 8.953125 -9.394531 8.738281 -9.878906 8.3125 -10.140625 C 7.882812 -10.398438 7.257812 -10.53125 6.4375 -10.53125 C 5.769531 -10.53125 5.191406 -10.414062 4.703125 -10.1875 C 4.210938 -9.96875 3.851562 -9.648438 3.625 -9.234375 L 1.203125 -10.78125 C 1.628906 -11.5 2.296875 -12.046875 3.203125 -12.421875 C 4.109375 -12.804688 5.207031 -13 6.5 -13 C 8.457031 -13 9.875 -12.65625 10.75 -11.96875 C 11.625 -11.28125 12.0625 -10.15625 12.0625 -8.59375 L 12.0625 0 Z M 8.953125 -5.859375 L 7.375 -5.71875 C 6.257812 -5.625 5.453125 -5.410156 4.953125 -5.078125 C 4.460938 -4.753906 4.21875 -4.265625 4.21875 -3.609375 C 4.21875 -3.023438 4.378906 -2.625 4.703125 -2.40625 C 5.023438 -2.195312 5.445312 -2.09375 5.96875 -2.09375 C 6.351562 -2.09375 6.816406 -2.210938 7.359375 -2.453125 C 7.898438 -2.691406 8.429688 -3.023438 8.953125 -3.453125 Z M 8.953125 -5.859375 "/></g></g></g><g fill="#f0ffff" fill-opacity="1"><g transform="translate(101.201829, 25.283266)"><g><path d="M 9.4375 0 L 6.078125 -5.234375 L 4.859375 -3.921875 L 4.859375 0 L 1.75 0 L 1.75 -17.9375 L 4.859375 -17.9375 L 4.859375 -7.671875 L 9.109375 -12.640625 L 12.703125 -12.640625 L 7.9375 -7.328125 L 12.96875 0 Z M 9.4375 0 "/></g></g></g><g fill="#f0ffff" fill-opacity="1"><g transform="translate(114.450811, 25.283266)"><g/></g></g><g fill="#f0ffff" fill-opacity="1"><g transform="translate(120.37672, 25.283266)"><g><path d="M 15.375 -2.765625 C 14.65625 -1.691406 13.773438 -0.90625 12.734375 -0.40625 C 11.691406 0.09375 10.414062 0.34375 8.90625 0.34375 C 3.738281 0.34375 1.15625 -2.550781 1.15625 -8.34375 C 1.15625 -11.300781 1.804688 -13.484375 3.109375 -14.890625 C 4.421875 -16.304688 6.3125 -17.015625 8.78125 -17.015625 C 10.414062 -17.015625 11.742188 -16.738281 12.765625 -16.1875 C 13.796875 -15.644531 14.582031 -14.925781 15.125 -14.03125 L 12.484375 -11.984375 C 12.097656 -12.566406 11.742188 -12.984375 11.421875 -13.234375 C 11.097656 -13.492188 10.726562 -13.6875 10.3125 -13.8125 C 9.90625 -13.945312 9.421875 -14.015625 8.859375 -14.015625 C 7.492188 -14.015625 6.453125 -13.578125 5.734375 -12.703125 C 5.015625 -11.828125 4.65625 -10.375 4.65625 -8.34375 C 4.65625 -6.4375 4.988281 -5.007812 5.65625 -4.0625 C 6.332031 -3.125 7.40625 -2.65625 8.875 -2.65625 C 9.863281 -2.65625 10.632812 -2.84375 11.1875 -3.21875 C 11.738281 -3.601562 12.238281 -4.109375 12.6875 -4.734375 Z M 15.375 -2.765625 "/></g></g></g><g fill="#f0ffff" fill-opacity="1"><g transform="translate(136.432083, 25.283266)"><g><path d="M 9.375 -9.59375 C 9.050781 -9.757812 8.625 -9.84375 8.09375 -9.84375 C 7.519531 -9.84375 6.972656 -9.703125 6.453125 -9.421875 C 5.929688 -9.148438 5.398438 -8.75 4.859375 -8.21875 L 4.859375 0 L 1.75 0 L 1.75 -12.640625 L 4.859375 -12.640625 L 4.859375 -10.828125 C 5.390625 -11.410156 5.957031 -11.890625 6.5625 -12.265625 C 7.175781 -12.640625 7.859375 -12.828125 8.609375 -12.828125 C 9.253906 -12.828125 9.710938 -12.742188 9.984375 -12.578125 Z M 9.375 -9.59375 "/></g></g></g><g fill="#f0ffff" fill-opacity="1"><g transform="translate(146.549488, 25.283266)"><g><path d="M 4.3125 -5.5 C 4.363281 -4.375 4.632812 -3.566406 5.125 -3.078125 C 5.613281 -2.585938 6.382812 -2.34375 7.4375 -2.34375 C 8.050781 -2.34375 8.585938 -2.421875 9.046875 -2.578125 C 9.515625 -2.734375 9.921875 -3.023438 10.265625 -3.453125 L 12.578125 -1.8125 C 12.066406 -1.070312 11.40625 -0.519531 10.59375 -0.15625 C 9.789062 0.195312 8.691406 0.375 7.296875 0.375 C 5.222656 0.375 3.671875 -0.171875 2.640625 -1.265625 C 1.617188 -2.359375 1.109375 -4.007812 1.109375 -6.21875 C 1.109375 -10.738281 3.132812 -13 7.1875 -13 C 8.976562 -13 10.34375 -12.488281 11.28125 -11.46875 C 12.226562 -10.457031 12.703125 -8.976562 12.703125 -7.03125 L 12.703125 -5.5 Z M 9.625 -7.65625 C 9.625 -9.570312 8.785156 -10.53125 7.109375 -10.53125 C 6.554688 -10.53125 6.101562 -10.4375 5.75 -10.25 C 5.394531 -10.0625 5.109375 -9.78125 4.890625 -9.40625 C 4.679688 -9.03125 4.515625 -8.445312 4.390625 -7.65625 Z M 9.625 -7.65625 "/></g></g></g><g fill="#f0ffff" fill-opacity="1"><g transform="translate(160.316391, 25.283266)"><g><path d="M 9.203125 0 L 9.203125 -1.3125 C 7.972656 -0.1875 6.65625 0.375 5.25 0.375 C 3.851562 0.375 2.796875 0.0078125 2.078125 -0.71875 C 1.367188 -1.457031 1.015625 -2.398438 1.015625 -3.546875 C 1.015625 -4.453125 1.195312 -5.195312 1.5625 -5.78125 C 1.925781 -6.363281 2.46875 -6.820312 3.1875 -7.15625 C 3.90625 -7.488281 4.9375 -7.722656 6.28125 -7.859375 L 8.953125 -8.125 L 8.953125 -8.6875 C 8.953125 -9.394531 8.738281 -9.878906 8.3125 -10.140625 C 7.882812 -10.398438 7.257812 -10.53125 6.4375 -10.53125 C 5.769531 -10.53125 5.191406 -10.414062 4.703125 -10.1875 C 4.210938 -9.96875 3.851562 -9.648438 3.625 -9.234375 L 1.203125 -10.78125 C 1.628906 -11.5 2.296875 -12.046875 3.203125 -12.421875 C 4.109375 -12.804688 5.207031 -13 6.5 -13 C 8.457031 -13 9.875 -12.65625 10.75 -11.96875 C 11.625 -11.28125 12.0625 -10.15625 12.0625 -8.59375 L 12.0625 0 Z M 8.953125 -5.859375 L 7.375 -5.71875 C 6.257812 -5.625 5.453125 -5.410156 4.953125 -5.078125 C 4.460938 -4.753906 4.21875 -4.265625 4.21875 -3.609375 C 4.21875 -3.023438 4.378906 -2.625 4.703125 -2.40625 C 5.023438 -2.195312 5.445312 -2.09375 5.96875 -2.09375 C 6.351562 -2.09375 6.816406 -2.210938 7.359375 -2.453125 C 7.898438 -2.691406 8.429688 -3.023438 8.953125 -3.453125 Z M 8.953125 -5.859375 "/></g></g></g><g fill="#f0ffff" fill-opacity="1"><g transform="translate(174.035116, 25.283266)"><g><path d="M 8.734375 0 C 7.898438 0.25 7.019531 0.375 6.09375 0.375 C 4.632812 0.375 3.582031 0.046875 2.9375 -0.609375 C 2.289062 -1.273438 1.96875 -2.34375 1.96875 -3.8125 L 1.96875 -10.171875 L 0.375 -10.171875 L 0.375 -12.640625 L 1.96875 -12.640625 L 1.96875 -16.15625 L 5.078125 -16.15625 L 5.078125 -12.640625 L 8.015625 -12.640625 L 8.015625 -10.171875 L 5.078125 -10.171875 L 5.078125 -4.21875 C 5.078125 -3.425781 5.195312 -2.890625 5.4375 -2.609375 C 5.6875 -2.328125 6.039062 -2.1875 6.5 -2.1875 C 7.0625 -2.1875 7.625 -2.304688 8.1875 -2.546875 Z M 8.734375 0 "/></g></g></g><g fill="#f0ffff" fill-opacity="1"><g transform="translate(182.936029, 25.283266)"><g><path d="M 13.234375 -6.28125 C 13.234375 -4.175781 12.742188 -2.539062 11.765625 -1.375 C 10.796875 -0.207031 9.269531 0.375 7.1875 0.375 C 3.132812 0.375 1.109375 -1.84375 1.109375 -6.28125 C 1.109375 -8.425781 1.59375 -10.082031 2.5625 -11.25 C 3.539062 -12.414062 5.082031 -13 7.1875 -13 C 9.269531 -13 10.796875 -12.414062 11.765625 -11.25 C 12.742188 -10.082031 13.234375 -8.425781 13.234375 -6.28125 Z M 10.015625 -6.28125 C 10.015625 -7.675781 9.796875 -8.691406 9.359375 -9.328125 C 8.921875 -9.960938 8.195312 -10.28125 7.1875 -10.28125 C 6.164062 -10.28125 5.429688 -9.953125 4.984375 -9.296875 C 4.535156 -8.648438 4.3125 -7.644531 4.3125 -6.28125 C 4.3125 -4.9375 4.535156 -3.941406 4.984375 -3.296875 C 5.429688 -2.660156 6.164062 -2.34375 7.1875 -2.34375 C 8.1875 -2.34375 8.90625 -2.65625 9.34375 -3.28125 C 9.789062 -3.914062 10.015625 -4.914062 10.015625 -6.28125 Z M 10.015625 -6.28125 "/></g></g></g><g fill="#f0ffff" fill-opacity="1"><g transform="translate(197.269019, 25.283266)"><g><path d="M 9.375 -9.59375 C 9.050781 -9.757812 8.625 -9.84375 8.09375 -9.84375 C 7.519531 -9.84375 6.972656 -9.703125 6.453125 -9.421875 C 5.929688 -9.148438 5.398438 -8.75 4.859375 -8.21875 L 4.859375 0 L 1.75 0 L 1.75 -12.640625 L 4.859375 -12.640625 L 4.859375 -10.828125 C 5.390625 -11.410156 5.957031 -11.890625 6.5625 -12.265625 C 7.175781 -12.640625 7.859375 -12.828125 8.609375 -12.828125 C 9.253906 -12.828125 9.710938 -12.742188 9.984375 -12.578125 Z M 9.375 -9.59375 "/></g></g></g><g fill="#f0ffff" fill-opacity="1"><g transform="translate(207.386424, 25.283266)"><g><path d="M 11.390625 -3.609375 C 11.390625 -2.765625 11.175781 -2.046875 10.75 -1.453125 C 10.332031 -0.859375 9.738281 -0.40625 8.96875 -0.09375 C 8.195312 0.21875 7.3125 0.375 6.3125 0.375 C 3.664062 0.375 1.867188 -0.359375 0.921875 -1.828125 L 3.234375 -3.453125 C 3.609375 -2.941406 4.039062 -2.597656 4.53125 -2.421875 C 5.03125 -2.253906 5.5625 -2.171875 6.125 -2.171875 C 7.601562 -2.171875 8.34375 -2.597656 8.34375 -3.453125 C 8.34375 -3.835938 8.128906 -4.128906 7.703125 -4.328125 C 7.285156 -4.535156 6.632812 -4.75 5.75 -4.96875 C 4.070312 -5.332031 2.890625 -5.851562 2.203125 -6.53125 C 1.523438 -7.207031 1.1875 -8.082031 1.1875 -9.15625 C 1.1875 -10.269531 1.613281 -11.1875 2.46875 -11.90625 C 3.320312 -12.632812 4.578125 -13 6.234375 -13 C 7.367188 -13 8.367188 -12.816406 9.234375 -12.453125 C 10.097656 -12.097656 10.765625 -11.554688 11.234375 -10.828125 L 8.90625 -9.171875 C 8.351562 -10.023438 7.445312 -10.453125 6.1875 -10.453125 C 5.550781 -10.453125 5.066406 -10.34375 4.734375 -10.125 C 4.398438 -9.90625 4.234375 -9.625 4.234375 -9.28125 C 4.234375 -8.945312 4.378906 -8.679688 4.671875 -8.484375 C 4.972656 -8.285156 5.5625 -8.078125 6.4375 -7.859375 C 7.875 -7.515625 8.898438 -7.164062 9.515625 -6.8125 C 10.128906 -6.457031 10.59375 -6.019531 10.90625 -5.5 C 11.226562 -4.988281 11.390625 -4.359375 11.390625 -3.609375 Z M 11.390625 -3.609375 "/></g></g></g><g clip-path="url(#2317684536)"><g clip-path="url(#f465c66304)"><path fill="#2e368b" d="M 5.121094 5.945312 L 31.5 5.945312 L 31.5 33.042969 L 5.121094 33.042969 Z M 5.121094 5.945312 " fill-opacity="1" fill-rule="nonzero"/></g></g><g fill="#f0ffff" fill-opacity="1"><g transform="translate(34.420143, 26.926702)"><g><path d="M 13.59375 -5.015625 C 13.59375 -3.179688 12.992188 -1.820312 11.796875 -0.9375 C 10.597656 -0.0625 8.953125 0.375 6.859375 0.375 C 5.359375 0.375 4.085938 0.101562 3.046875 -0.4375 C 2.015625 -0.988281 1.28125 -1.679688 0.84375 -2.515625 L 3.78125 -4.515625 C 4.09375 -4.023438 4.484375 -3.628906 4.953125 -3.328125 C 5.429688 -3.023438 6.078125 -2.875 6.890625 -2.875 C 7.921875 -2.875 8.671875 -3.070312 9.140625 -3.46875 C 9.609375 -3.863281 9.84375 -4.46875 9.84375 -5.28125 C 9.84375 -6.925781 8.753906 -7.75 6.578125 -7.75 L 4.984375 -7.75 L 4.984375 -10.875 L 6.359375 -10.875 C 7.453125 -10.875 8.25 -11.085938 8.75 -11.515625 C 9.25 -11.953125 9.5 -12.515625 9.5 -13.203125 C 9.5 -13.703125 9.316406 -14.117188 8.953125 -14.453125 C 8.597656 -14.785156 8.003906 -14.953125 7.171875 -14.953125 C 6.347656 -14.953125 5.6875 -14.820312 5.1875 -14.5625 C 4.695312 -14.300781 4.28125 -13.90625 3.9375 -13.375 L 1.03125 -15.40625 C 1.738281 -16.363281 2.59375 -17.066406 3.59375 -17.515625 C 4.59375 -17.972656 5.878906 -18.203125 7.453125 -18.203125 C 8.640625 -18.203125 9.675781 -18.015625 10.5625 -17.640625 C 11.457031 -17.273438 12.128906 -16.757812 12.578125 -16.09375 C 13.035156 -15.4375 13.265625 -14.679688 13.265625 -13.828125 C 13.265625 -11.492188 12.066406 -10.035156 9.671875 -9.453125 C 10.847656 -9.367188 11.796875 -8.921875 12.515625 -8.109375 C 13.234375 -7.296875 13.59375 -6.265625 13.59375 -5.015625 Z M 13.59375 -5.015625 "/></g></g></g><g fill="#f0ffff" fill-opacity="1"><g transform="translate(44.658371, 26.926702)"><g><path d="M 14.75 -5.171875 C 14.75 -3.378906 14.160156 -2.003906 12.984375 -1.046875 C 11.816406 -0.0976562 10.09375 0.375 7.8125 0.375 C 6.226562 0.375 4.851562 0.113281 3.6875 -0.40625 C 2.53125 -0.9375 1.582031 -1.785156 0.84375 -2.953125 L 3.640625 -5.09375 C 4.054688 -4.507812 4.445312 -4.070312 4.8125 -3.78125 C 5.1875 -3.488281 5.625 -3.257812 6.125 -3.09375 C 6.632812 -2.925781 7.222656 -2.84375 7.890625 -2.84375 C 8.878906 -2.84375 9.648438 -3.007812 10.203125 -3.34375 C 10.753906 -3.6875 11.03125 -4.207031 11.03125 -4.90625 C 11.03125 -5.300781 10.929688 -5.628906 10.734375 -5.890625 C 10.546875 -6.160156 10.257812 -6.390625 9.875 -6.578125 C 9.488281 -6.773438 8.816406 -7 7.859375 -7.25 C 6.929688 -7.5 6.054688 -7.75 5.234375 -8 C 4.410156 -8.257812 3.703125 -8.585938 3.109375 -8.984375 C 2.515625 -9.390625 2.046875 -9.898438 1.703125 -10.515625 C 1.359375 -11.128906 1.1875 -11.898438 1.1875 -12.828125 C 1.1875 -14.515625 1.753906 -15.832031 2.890625 -16.78125 C 4.035156 -17.726562 5.675781 -18.203125 7.8125 -18.203125 C 10.894531 -18.203125 13.078125 -17.144531 14.359375 -15.03125 L 11.578125 -12.875 C 11.085938 -13.625 10.535156 -14.160156 9.921875 -14.484375 C 9.316406 -14.816406 8.59375 -14.984375 7.75 -14.984375 C 6.914062 -14.984375 6.234375 -14.832031 5.703125 -14.53125 C 5.171875 -14.226562 4.90625 -13.75 4.90625 -13.09375 C 4.90625 -12.519531 5.179688 -12.078125 5.734375 -11.765625 C 6.285156 -11.460938 7.242188 -11.15625 8.609375 -10.84375 C 9.359375 -10.644531 10.101562 -10.429688 10.84375 -10.203125 C 11.582031 -9.984375 12.242188 -9.671875 12.828125 -9.265625 C 13.410156 -8.859375 13.875 -8.328125 14.21875 -7.671875 C 14.570312 -7.023438 14.75 -6.191406 14.75 -5.171875 Z M 14.75 -5.171875 "/></g></g></g><g clip-path="url(#945251d8bf)"><path fill="#72c4d9" d="M 19.292969 22.167969 L 19.292969 9.257812 C 19.292969 8.996094 19.195312 8.742188 19.007812 8.558594 C 18.820312 8.375 18.570312 8.269531 18.308594 8.269531 C 18.046875 8.269531 17.796875 8.375 17.609375 8.558594 C 17.421875 8.742188 17.320312 8.996094 17.320312 9.257812 L 17.320312 22.167969 C 17.320312 22.167969 15.4375 20.285156 14.386719 19.234375 C 14.203125 19.046875 13.949219 18.945312 13.6875 18.945312 C 13.429688 18.945312 13.175781 19.046875 12.992188 19.234375 C 12.605469 19.617188 12.605469 20.242188 12.992188 20.625 L 17.648438 25.28125 C 17.824219 25.457031 18.058594 25.554688 18.308594 25.554688 C 18.558594 25.554688 18.792969 25.457031 18.96875 25.28125 L 23.625 20.625 C 24.007812 20.242188 24.007812 19.617188 23.625 19.234375 C 23.4375 19.046875 23.1875 18.945312 22.925781 18.945312 C 22.664062 18.945312 22.414062 19.046875 22.226562 19.234375 C 21.171875 20.285156 19.292969 22.167969 19.292969 22.167969 Z M 19.292969 22.167969 " fill-opacity="1" fill-rule="evenodd"/></g><g clip-path="url(#b377067cbf)"><path fill="#72c4d9" d="M 7.109375 28.804688 C 7.109375 29.300781 7.304688 29.773438 7.65625 30.121094 C 8.007812 30.472656 8.484375 30.667969 8.972656 30.667969 L 27.640625 30.667969 C 28.136719 30.667969 28.613281 30.472656 28.957031 30.121094 C 29.3125 29.769531 29.507812 29.292969 29.507812 28.804688 L 29.507812 23.15625 C 29.507812 22.609375 29.066406 22.167969 28.523438 22.167969 C 28.261719 22.167969 28.007812 22.273438 27.824219 22.457031 C 27.636719 22.644531 27.535156 22.894531 27.535156 23.15625 L 27.535156 27.769531 C 27.535156 28.285156 27.117188 28.703125 26.601562 28.703125 L 10.015625 28.703125 C 9.496094 28.703125 9.082031 28.285156 9.082031 27.769531 L 9.082031 23.15625 C 9.082031 22.894531 8.972656 22.644531 8.792969 22.457031 C 8.605469 22.269531 8.355469 22.167969 8.09375 22.167969 C 7.550781 22.167969 7.109375 22.609375 7.109375 23.15625 Z M 7.109375 28.804688 " fill-opacity="1" fill-rule="evenodd"/></g><g clip-path="url(#aa6daadce1)"><g clip-path="url(#35eeca1947)"><path fill="#2e368b" d="M 11.195312 7.527344 L 24.644531 7.527344 L 24.644531 26.707031 L 11.195312 26.707031 Z M 11.195312 7.527344 " fill-opacity="1" fill-rule="nonzero"/></g></g><g clip-path="url(#6e34051967)"><path fill="#de2730" d="M 18.894531 21.550781 L 18.894531 8.523438 C 18.894531 8.261719 18.792969 8.007812 18.605469 7.820312 C 18.414062 7.636719 18.164062 7.527344 17.898438 7.527344 C 17.636719 7.527344 17.382812 7.636719 17.195312 7.820312 C 17.003906 8.007812 16.902344 8.261719 16.902344 8.523438 L 16.902344 21.550781 C 16.902344 21.550781 15.003906 19.652344 13.945312 18.589844 C 13.757812 18.402344 13.503906 18.300781 13.238281 18.300781 C 12.976562 18.300781 12.722656 18.402344 12.535156 18.589844 C 12.148438 18.976562 12.148438 19.609375 12.535156 19.996094 L 17.230469 24.691406 C 17.410156 24.871094 17.644531 24.964844 17.898438 24.964844 C 18.152344 24.964844 18.386719 24.871094 18.566406 24.691406 L 23.261719 19.996094 C 23.648438 19.609375 23.648438 18.976562 23.261719 18.589844 C 23.074219 18.402344 22.820312 18.300781 22.558594 18.300781 C 22.292969 18.300781 22.042969 18.402344 21.851562 18.589844 C 20.789062 19.652344 18.894531 21.550781 18.894531 21.550781 Z M 18.894531 21.550781 " fill-opacity="1" fill-rule="evenodd"/></g><g clip-path="url(#4c76bc8f04)"><path fill="#de2730" d="M 6.601562 28.242188 C 6.601562 28.742188 6.800781 29.222656 7.15625 29.570312 C 7.507812 29.925781 7.988281 30.125 8.484375 30.125 L 27.3125 30.125 C 27.816406 30.125 28.292969 29.925781 28.644531 29.570312 C 29 29.21875 29.199219 28.738281 29.199219 28.242188 L 29.199219 22.546875 C 29.199219 21.996094 28.75 21.550781 28.203125 21.550781 C 27.9375 21.550781 27.683594 21.65625 27.496094 21.839844 C 27.308594 22.027344 27.207031 22.28125 27.207031 22.546875 L 27.207031 27.199219 C 27.207031 27.722656 26.785156 28.140625 26.265625 28.140625 L 9.53125 28.140625 C 9.011719 28.140625 8.589844 27.722656 8.589844 27.199219 L 8.589844 22.546875 C 8.589844 22.28125 8.484375 22.027344 8.300781 21.839844 C 8.113281 21.652344 7.859375 21.550781 7.59375 21.550781 C 7.046875 21.550781 6.601562 21.996094 6.601562 22.546875 Z M 6.601562 28.242188 " fill-opacity="1" fill-rule="evenodd"/></g></svg>